<svg xmlns="http://www.w3.org/2000/svg" xmlns:xlink="http://www.w3.org/1999/xlink" version="1.1" width="256" height="256" viewBox="0 0 256 256" xml:space="preserve">

<defs>
</defs>
<g style="stroke: none; stroke-width: 0; stroke-dasharray: none; stroke-linecap: butt; stroke-linejoin: miter; stroke-miterlimit: 10; fill: none; fill-rule: nonzero; opacity: 1;" transform="translate(1.4065934065934016 1.4065934065934016) scale(2.81 2.81)" >
	<path d="M 45 58.707 c 13.11 0 22.734 10.861 35.732 15.085 c 4.854 1.577 9.713 -2.458 9.236 -7.539 c -0.95 -13 -3.002 -26.16 -7.811 -36.88 c -2.257 -5.031 -7.955 -7.567 -13.222 -5.934 C 60.418 26.079 52.943 29.604 45 29.604 s -15.418 -3.526 -23.935 -6.166 c -5.267 -1.633 -10.965 0.903 -13.222 5.934 c -4.809 10.72 -6.861 23.88 -7.811 36.88 c -0.477 5.082 4.381 9.117 9.236 7.539 C 22.266 69.568 31.89 58.707 45 58.707 z" style="stroke: none; stroke-width: 1; stroke-dasharray: none; stroke-linecap: butt; stroke-linejoin: miter; stroke-miterlimit: 10; fill: rgb(103,110,136); fill-rule: nonzero; opacity: 1;" transform=" matrix(1 0 0 1 0 0) " stroke-linecap="round" />
	<circle cx="69.368" cy="37.658" r="2.728" style="stroke: none; stroke-width: 1; stroke-dasharray: none; stroke-linecap: butt; stroke-linejoin: miter; stroke-miterlimit: 10; fill: rgb(0,210,210); fill-rule: nonzero; opacity: 1;" transform="  matrix(1 0 0 1 0 0) "/>
	<circle cx="69.368" cy="50.938" r="2.728" style="stroke: none; stroke-width: 1; stroke-dasharray: none; stroke-linecap: butt; stroke-linejoin: miter; stroke-miterlimit: 10; fill: rgb(0,210,210); fill-rule: nonzero; opacity: 1;" transform="  matrix(1 0 0 1 0 0) "/>
	<circle cx="62.728" cy="44.298" r="2.728" style="stroke: none; stroke-width: 1; stroke-dasharray: none; stroke-linecap: butt; stroke-linejoin: miter; stroke-miterlimit: 10; fill: rgb(246,99,135); fill-rule: nonzero; opacity: 1;" transform="  matrix(1 0 0 1 0 0) "/>
	<circle cx="76.008" cy="44.298" r="2.728" style="stroke: none; stroke-width: 1; stroke-dasharray: none; stroke-linecap: butt; stroke-linejoin: miter; stroke-miterlimit: 10; fill: rgb(246,99,135); fill-rule: nonzero; opacity: 1;" transform="  matrix(1 0 0 1 0 0) "/>
	<path d="M 29.784 44.301 c 0 -1.289 -1.049 -2.337 -2.338 -2.337 h -4.478 v -4.479 c 0 -1.289 -1.049 -2.338 -2.338 -2.338 c -1.289 0 -2.338 1.049 -2.338 2.338 v 4.479 h -4.478 c -1.289 0 -2.338 1.049 -2.338 2.337 c 0 1.289 1.049 2.338 2.338 2.338 h 4.478 v 4.479 c 0 1.289 1.049 2.337 2.338 2.337 c 1.289 0 2.338 -1.049 2.338 -2.337 v -4.479 h 4.478 C 28.736 46.639 29.784 45.591 29.784 44.301 z" style="stroke: none; stroke-width: 1; stroke-dasharray: none; stroke-linecap: butt; stroke-linejoin: miter; stroke-miterlimit: 10; fill: rgb(45,48,60); fill-rule: nonzero; opacity: 1;" transform=" matrix(1 0 0 1 0 0) " stroke-linecap="round" />
</g>
</svg>